<mxfile host="Electron" agent="Mozilla/5.0 (Windows NT 10.0; Win64; x64) AppleWebKit/537.36 (KHTML, like Gecko) draw.io/25.0.1 Chrome/128.0.6613.186 Electron/32.2.6 Safari/537.36" version="25.0.1">
  <diagram name="Page-1" id="0JesLXrjSMeHilTzgFD6">
    <mxGraphModel dx="1235" dy="731" grid="1" gridSize="10" guides="1" tooltips="1" connect="1" arrows="1" fold="1" page="1" pageScale="1" pageWidth="850" pageHeight="1100" math="0" shadow="0">
      <root>
        <mxCell id="0" />
        <mxCell id="1" parent="0" />
        <mxCell id="fvlIII-Ez50uNuMyyY1--1" value="Neulogovani korisnik" style="shape=umlActor;verticalLabelPosition=bottom;verticalAlign=top;html=1;outlineConnect=0;fontColor=#000000;" vertex="1" parent="1">
          <mxGeometry x="410" y="40" width="30" height="60" as="geometry" />
        </mxCell>
        <mxCell id="fvlIII-Ez50uNuMyyY1--2" value="Ulogovani korisnik" style="shape=umlActor;verticalLabelPosition=bottom;verticalAlign=top;html=1;outlineConnect=0;fontColor=#000000;" vertex="1" parent="1">
          <mxGeometry x="410" y="300" width="30" height="60" as="geometry" />
        </mxCell>
        <mxCell id="fvlIII-Ez50uNuMyyY1--3" value="Administrator" style="shape=umlActor;verticalLabelPosition=bottom;verticalAlign=top;html=1;outlineConnect=0;fontColor=#000000;" vertex="1" parent="1">
          <mxGeometry x="410" y="540" width="30" height="60" as="geometry" />
        </mxCell>
        <mxCell id="fvlIII-Ez50uNuMyyY1--4" value="&lt;span&gt;Kreiranje i brisanje čitalaca&lt;/span&gt;" style="ellipse;whiteSpace=wrap;html=1;fontColor=#000000;verticalAlign=middle;fontSize=12;" vertex="1" parent="1">
          <mxGeometry x="555" y="470" width="230" height="80" as="geometry" />
        </mxCell>
        <mxCell id="fvlIII-Ez50uNuMyyY1--5" value="&lt;br&gt;&lt;span style=&quot;font-family: Helvetica; font-style: normal; font-variant-ligatures: normal; font-variant-caps: normal; font-weight: 400; letter-spacing: normal; orphans: 2; text-align: center; text-indent: 0px; text-transform: none; widows: 2; word-spacing: 0px; -webkit-text-stroke-width: 0px; white-space: normal; text-decoration-thickness: initial; text-decoration-style: initial; text-decoration-color: initial; float: none; display: inline !important;&quot;&gt;Dodavanje, uklanjanje i prikaz liste za&amp;nbsp;&lt;/span&gt;čitanje&lt;div&gt;&lt;br/&gt;&lt;/div&gt;" style="ellipse;whiteSpace=wrap;html=1;verticalAlign=middle;fontColor=#000000;fontSize=12;" vertex="1" parent="1">
          <mxGeometry x="50" y="330" width="260" height="80" as="geometry" />
        </mxCell>
        <mxCell id="fvlIII-Ez50uNuMyyY1--6" value="&lt;span&gt;Recenzija i komentarisanje knjiga&lt;/span&gt;" style="ellipse;whiteSpace=wrap;html=1;verticalAlign=middle;fontColor=#000000;fontSize=12;" vertex="1" parent="1">
          <mxGeometry x="70" y="210" width="220" height="80" as="geometry" />
        </mxCell>
        <mxCell id="fvlIII-Ez50uNuMyyY1--7" value="&lt;span style=&quot;background-color: initial;&quot;&gt;Prikaz i ažuriranje osnovnih&amp;nbsp;&lt;/span&gt;&lt;div&gt;&lt;span style=&quot;background-color: initial;&quot;&gt;podataka o čitaocu&lt;/span&gt;&lt;/div&gt;" style="ellipse;whiteSpace=wrap;html=1;verticalAlign=middle;fontColor=#000000;fontSize=12;" vertex="1" parent="1">
          <mxGeometry x="550" y="330" width="240" height="80" as="geometry" />
        </mxCell>
        <mxCell id="fvlIII-Ez50uNuMyyY1--8" value="&lt;span&gt;Prijavljivanje na sistem i povratak šifre&lt;/span&gt;" style="ellipse;whiteSpace=wrap;html=1;verticalAlign=middle;fontColor=#000000;fontSize=12;" vertex="1" parent="1">
          <mxGeometry x="540" y="190" width="260" height="80" as="geometry" />
        </mxCell>
        <mxCell id="fvlIII-Ez50uNuMyyY1--9" value="Registracija na sistem" style="ellipse;whiteSpace=wrap;html=1;verticalAlign=middle;fontColor=#000000;fontSize=12;" vertex="1" parent="1">
          <mxGeometry x="100" y="20" width="200" height="80" as="geometry" />
        </mxCell>
        <mxCell id="fvlIII-Ez50uNuMyyY1--10" value="&lt;span&gt;Prikaz knjiga i njihovih recenzija i komentara,&lt;/span&gt;&lt;div&gt;&amp;nbsp;kao i njihovo pretraživanje&lt;/div&gt;" style="ellipse;whiteSpace=wrap;html=1;fontColor=#000000;verticalAlign=middle;fontSize=12;" vertex="1" parent="1">
          <mxGeometry x="530" y="30" width="260" height="80" as="geometry" />
        </mxCell>
        <mxCell id="fvlIII-Ez50uNuMyyY1--11" value="&lt;span&gt;Prikaz liste čitalaca&lt;/span&gt;" style="ellipse;whiteSpace=wrap;html=1;fontColor=#000000;verticalAlign=middle;fontSize=12;" vertex="1" parent="1">
          <mxGeometry x="100" y="550" width="220" height="80" as="geometry" />
        </mxCell>
        <mxCell id="fvlIII-Ez50uNuMyyY1--12" value="&lt;span&gt;Dodavanje i uklanjanje knjiga&lt;/span&gt;" style="ellipse;whiteSpace=wrap;html=1;verticalAlign=middle;fontColor=#000000;fontSize=12;" vertex="1" parent="1">
          <mxGeometry x="60" y="460" width="230" height="80" as="geometry" />
        </mxCell>
        <mxCell id="fvlIII-Ez50uNuMyyY1--15" value="" style="endArrow=classic;html=1;rounded=0;entryX=0.991;entryY=0.595;entryDx=0;entryDy=0;entryPerimeter=0;fontColor=#000000;" edge="1" parent="1" source="fvlIII-Ez50uNuMyyY1--3" target="fvlIII-Ez50uNuMyyY1--11">
          <mxGeometry width="50" height="50" relative="1" as="geometry">
            <mxPoint x="400" y="350" as="sourcePoint" />
            <mxPoint x="450" y="300" as="targetPoint" />
          </mxGeometry>
        </mxCell>
        <mxCell id="fvlIII-Ez50uNuMyyY1--16" value="" style="endArrow=classic;html=1;rounded=0;entryX=1;entryY=0.5;entryDx=0;entryDy=0;fontColor=#000000;" edge="1" parent="1" target="fvlIII-Ez50uNuMyyY1--12">
          <mxGeometry width="50" height="50" relative="1" as="geometry">
            <mxPoint x="400" y="550" as="sourcePoint" />
            <mxPoint x="450" y="300" as="targetPoint" />
          </mxGeometry>
        </mxCell>
        <mxCell id="fvlIII-Ez50uNuMyyY1--17" value="" style="endArrow=classic;html=1;rounded=0;entryX=0;entryY=0.5;entryDx=0;entryDy=0;fontColor=#000000;" edge="1" parent="1" source="fvlIII-Ez50uNuMyyY1--3" target="fvlIII-Ez50uNuMyyY1--4">
          <mxGeometry width="50" height="50" relative="1" as="geometry">
            <mxPoint x="400" y="350" as="sourcePoint" />
            <mxPoint x="450" y="300" as="targetPoint" />
          </mxGeometry>
        </mxCell>
        <mxCell id="fvlIII-Ez50uNuMyyY1--18" value="" style="endArrow=classic;html=1;rounded=0;fontColor=#000000;" edge="1" parent="1" source="fvlIII-Ez50uNuMyyY1--2" target="fvlIII-Ez50uNuMyyY1--5">
          <mxGeometry width="50" height="50" relative="1" as="geometry">
            <mxPoint x="400" y="350" as="sourcePoint" />
            <mxPoint x="450" y="300" as="targetPoint" />
          </mxGeometry>
        </mxCell>
        <mxCell id="fvlIII-Ez50uNuMyyY1--19" value="" style="endArrow=classic;html=1;rounded=0;entryX=0;entryY=0.5;entryDx=0;entryDy=0;fontColor=#000000;" edge="1" parent="1" source="fvlIII-Ez50uNuMyyY1--2" target="fvlIII-Ez50uNuMyyY1--7">
          <mxGeometry width="50" height="50" relative="1" as="geometry">
            <mxPoint x="400" y="350" as="sourcePoint" />
            <mxPoint x="450" y="300" as="targetPoint" />
          </mxGeometry>
        </mxCell>
        <mxCell id="fvlIII-Ez50uNuMyyY1--20" value="" style="endArrow=classic;html=1;rounded=0;fontColor=#000000;" edge="1" parent="1" target="fvlIII-Ez50uNuMyyY1--6">
          <mxGeometry width="50" height="50" relative="1" as="geometry">
            <mxPoint x="410" y="310" as="sourcePoint" />
            <mxPoint x="450" y="300" as="targetPoint" />
          </mxGeometry>
        </mxCell>
        <mxCell id="fvlIII-Ez50uNuMyyY1--21" value="" style="endArrow=classic;html=1;rounded=0;entryX=0;entryY=0.5;entryDx=0;entryDy=0;fontColor=#000000;" edge="1" parent="1" target="fvlIII-Ez50uNuMyyY1--8">
          <mxGeometry width="50" height="50" relative="1" as="geometry">
            <mxPoint x="450" y="310" as="sourcePoint" />
            <mxPoint x="450" y="300" as="targetPoint" />
          </mxGeometry>
        </mxCell>
        <mxCell id="fvlIII-Ez50uNuMyyY1--22" value="" style="endArrow=classic;html=1;rounded=0;entryX=1.014;entryY=0.62;entryDx=0;entryDy=0;entryPerimeter=0;fontColor=#000000;" edge="1" parent="1" target="fvlIII-Ez50uNuMyyY1--9">
          <mxGeometry width="50" height="50" relative="1" as="geometry">
            <mxPoint x="420" y="70" as="sourcePoint" />
            <mxPoint x="450" y="300" as="targetPoint" />
          </mxGeometry>
        </mxCell>
        <mxCell id="fvlIII-Ez50uNuMyyY1--23" value="" style="endArrow=classic;html=1;rounded=0;fontColor=#000000;" edge="1" parent="1">
          <mxGeometry width="50" height="50" relative="1" as="geometry">
            <mxPoint x="430" y="70" as="sourcePoint" />
            <mxPoint x="530" y="70" as="targetPoint" />
          </mxGeometry>
        </mxCell>
        <mxCell id="fvlIII-Ez50uNuMyyY1--26" value="" style="endArrow=block;endSize=16;endFill=0;html=1;rounded=0;fontColor=#000000;" edge="1" parent="1">
          <mxGeometry width="160" relative="1" as="geometry">
            <mxPoint x="425" y="530" as="sourcePoint" />
            <mxPoint x="420" y="390" as="targetPoint" />
          </mxGeometry>
        </mxCell>
        <mxCell id="fvlIII-Ez50uNuMyyY1--27" value="" style="endArrow=block;endSize=16;endFill=0;html=1;rounded=0;fontColor=#000000;" edge="1" parent="1">
          <mxGeometry width="160" relative="1" as="geometry">
            <mxPoint x="420" y="290" as="sourcePoint" />
            <mxPoint x="420" y="120" as="targetPoint" />
          </mxGeometry>
        </mxCell>
      </root>
    </mxGraphModel>
  </diagram>
</mxfile>
